<?xml version="1.0" encoding="utf-8"?>
<!-- Generator: Adobe Illustrator 24.0.1, SVG Export Plug-In . SVG Version: 6.00 Build 0)  -->
<svg version="1.1" id="Layer_1" xmlns="http://www.w3.org/2000/svg" xmlns:xlink="http://www.w3.org/1999/xlink" x="0px" y="0px"
	 viewBox="0 0 2048 2048" style="enable-background:new 0 0 2048 2048;" xml:space="preserve">
<style type="text/css">
	.st0{fill:#FFFFFF;}
	.st1{fill:#FFFFFF;stroke:#000000;stroke-width:128;stroke-linecap:round;stroke-linejoin:round;stroke-miterlimit:10;}
	.st2{fill:none;stroke:#000000;stroke-width:128;stroke-linecap:round;stroke-linejoin:round;stroke-miterlimit:10;}
</style>
<g>
	<path class="st0" d="M256,1984c-105.9,0-192-86.1-192-192V256c0-105.9,86.1-192,192-192h1536c105.9,0,192,86.1,192,192v1536
		c0,105.9-86.1,192-192,192H256z"/>
	<path d="M1792,128c34.2,0,66.3,13.3,90.5,37.5s37.5,56.3,37.5,90.5v1536c0,34.2-13.3,66.3-37.5,90.5
		c-24.2,24.2-56.3,37.5-90.5,37.5H256c-34.2,0-66.3-13.3-90.5-37.5c-24.2-24.2-37.5-56.3-37.5-90.5V256c0-34.2,13.3-66.3,37.5-90.5
		S221.8,128,256,128H1792 M1792,0H256C114.6,0,0,114.6,0,256v1536c0,141.4,114.6,256,256,256h1536c141.4,0,256-114.6,256-256V256
		C2048,114.6,1933.4,0,1792,0L1792,0z"/>
</g>
<circle class="st1" cx="813.6" cy="899.5" r="539.6"/>
<line class="st2" x1="1239.3" y1="1230.9" x2="1774" y2="1688.1"/>
<path d="M631,548.1c-9.7,35,79.9,110.7,181.2,112.5c99.9,1.7,191.9-68.7,183.8-104C982,494.7,647.9,487.1,631,548.1z"/>
<path d="M427.4,960.6c30.3,20,130-41.7,163-137.6c32.5-94.5-6-203.7-42.1-207C485.1,610.3,374.6,925.7,427.4,960.6z"/>
<path d="M1092.7,613.4c-36.2,1.6-80.6,110.2-50.9,207.1c29.2,95.6,124.6,161.3,155.7,142.7C1251.9,930.7,1155.9,610.6,1092.7,613.4z
	"/>
<path d="M745.1,1285.9c28.4-22.6,0.5-136.5-80.5-197.5c-79.8-60.1-195.6-57.2-209.8-23.9C429.8,1122.8,695.6,1325.4,745.1,1285.9z"
	/>
<path d="M1162.1,1079.7c-12.7-34-129.7-42.6-212.7,15.6c-81.9,57.3-114.9,168.4-87.6,192.2
	C909.5,1329.1,1184.3,1138.9,1162.1,1079.7z"/>
<circle cx="820.4" cy="901.8" r="64.5"/>
</svg>
